<?xml version="1.0" encoding="utf-8"?>
<!-- Generator: Adobe Illustrator 24.1.0, SVG Export Plug-In . SVG Version: 6.00 Build 0)  -->
<svg version="1.1" xmlns="http://www.w3.org/2000/svg" xmlns:xlink="http://www.w3.org/1999/xlink" x="0px" y="0px"
	 viewBox="0 0 291.8 97.2" style="enable-background:new 0 0 291.8 97.2;" xml:space="preserve">
<style type="text/css">
	.st0{display:none;}
	.st1{display:inline;stroke:#000000;stroke-miterlimit:10;}
	.st2{fill:#FFFFFF;}
</style>
<g id="Layer_2" class="st0">
	<polyline class="st1" points="511.8,-14.3 511.8,133.7 -15.2,133.7 -15.2,-14.3 	"/>
</g>
<g id="Calque_1">
	<g>
		<path class="st2" d="M55.2,21.9h1.9c-1.1-6.5-4-11.6-8.8-15.4s-10.8-5.7-18-5.7C21,0.7,13.6,3.9,8,10.3c-5.3,6.1-8,13.9-8,23.4
			C0,43.3,2.6,51,7.7,57.1c5.5,6.4,13,9.7,22.6,9.7c6.4,0,11.8-1.5,16.4-4.5c4.6-3.1,7.7-7.3,9.4-12.6h0.2v17.2H58V35.7H31.2v1.8h25
			v3.3c0,6.9-2.5,12.7-7.5,17.3c-4.9,4.6-11,6.9-18.2,6.9c-9.2,0-16.3-3.1-21.6-9.2c-4.8-5.7-7.2-13-7.2-22.1
			c0-8.9,2.5-16.2,7.5-22.1c5.3-6.1,12.3-9.1,21-9.1c6.7,0,12.2,1.7,16.7,5.3C51.3,11.3,54,16,55.2,21.9"/>
		<path class="st2" d="M94.5,3.9h0.3l15.4,39.8H78.5L94.5,3.9z M119.4,66.9h2L95.7,2h-2.3L67.1,66.9h2.1l8.7-21.4h32.9L119.4,66.9z"
			/>
		<polygon class="st2" points="181.2,4.3 181.4,4.3 181.4,66.9 183.2,66.9 183.2,2 180.2,2 152.9,64.5 152.6,64.5 125.3,2 122.2,2 
			122.2,66.9 124,66.9 124,4.3 124.3,4.3 151.7,66.9 153.7,66.9 		"/>
		<path class="st2" d="M217.2,34c5.2,0,9.4,1.1,12.7,3.4c3.9,2.7,5.8,6.7,5.8,12c0,5.1-1.8,9-5.4,11.8C227,63.7,222.6,65,217,65
			h-25.7V34H217.2z M228.7,28.6c-3,2.4-6.8,3.5-11.5,3.5h-26V3.9h26c4.9,0,8.8,1.2,11.8,3.5c3.2,2.5,4.7,6,4.7,10.8
			C233.7,22.6,232,26.1,228.7,28.6 M230.2,6.1c-3.3-2.6-7.7-4.1-13-4.1h-27.8v64.9h26.7c6.4,0,11.6-1.5,15.4-4.5c4-3.1,6-7.5,6-13.1
			c0-4.8-1.5-8.7-4.6-11.6c-3-2.8-6.6-4.2-11.1-4.4V33c4-0.3,7.2-1.9,9.8-4.7s3.9-6.2,3.9-10.1C235.5,13,233.7,8.9,230.2,6.1"/>
		<rect x="62.2" y="2.1" class="st2" width="1.8" height="9.2"/>
		<rect x="62.2" y="20.2" class="st2" width="1.8" height="46.6"/>
		<path class="st2" d="M263.9,3.9h0.2l15.4,39.8H248L263.9,3.9z M265.1,2h-2.4l-26.3,64.7h2.1l8.6-21.2h33.1l8.4,21.2h2L265.1,2z"/>
		<path class="st2" d="M126.2,81h3.6c2.4,0,3.7,1.1,3.7,3c0,2.1-1.3,3-4.1,3h-3.1L126.2,81L126.2,81z M135.3,84.1
			c0-3.1-1.8-4.6-5.1-4.6h-5.8V96h1.8v-7.5h2.9C133.1,88.5,135.3,87.1,135.3,84.1"/>
		<path class="st2" d="M141.9,80.7l2.5,8.6h-5.1l2.4-8.6H141.9z M138.8,90.8h6l1.5,5.3h2l-5.1-16.6h-2.8l-5.1,16.6h1.9L138.8,90.8z"
			/>
		<path class="st2" d="M152.9,86.9v-6h3.3c2.6,0,3.8,1,3.8,2.9c0,2-1.3,3-3.8,3L152.9,86.9L152.9,86.9z M151.1,96h1.9v-7.6h3.8
			l3.4,7.6h2l-3.5-7.9c2.2-0.7,3.2-2.2,3.2-4.3c0-2.9-1.8-4.4-5.4-4.4h-5.4V96z"/>
		<rect x="167" y="79.4" class="st2" width="1.8" height="16.6"/>
		<path class="st2" d="M181.9,83.6l1.6-0.4c-0.8-2.8-2.6-4.1-5.4-4.1c-1.4,0-2.6,0.4-3.6,1.3c-0.9,0.7-1.3,1.7-1.3,2.9
			c0,1.9,1.6,3.3,4.6,4.5c1.7,0.5,2.8,1,3.2,1.3c1,0.6,1.4,1.4,1.4,2.3c0,2-1.2,2.9-3.7,2.9c-2,0-3.5-1.1-4.3-3.3l-1.6,0.6
			c1.2,2.9,3.2,4.3,5.9,4.3c3.7,0,5.5-1.7,5.5-4.9c0-1.9-1.5-3.4-4.6-4.6c-1.8-0.6-2.8-1.1-3.2-1.3c-1-0.5-1.5-1.2-1.4-2
			c0-1.8,1.1-2.6,3-2.6C180.1,80.8,181.5,81.8,181.9,83.6"/>
	</g>
</g>
</svg>
